<?xml version="1.0" encoding="utf-8"?>
<!-- Generator: Adobe Illustrator 25.2.0, SVG Export Plug-In . SVG Version: 6.00 Build 0)  -->
<svg version="1.1" id="Layer_1" xmlns="http://www.w3.org/2000/svg" xmlns:xlink="http://www.w3.org/1999/xlink" x="0px" y="0px"
	 viewBox="0 0 640 480" style="enable-background:new 0 0 640 480;" xml:space="preserve">
<style type="text/css">
	.st0{fill:#004555;stroke:#000000;stroke-width:6;stroke-linejoin:round;stroke-miterlimit:10;}
	.st1{fill:none;stroke:#000000;stroke-miterlimit:10;}
	.st2{font-family:'MyriadPro-Regular';}
	.st3{font-size:43.4287px;}
	.st4{font-size:55.5683px;}
	.st5{font-size:78.6307px;}
</style>
<path class="st0" d="M292.65,212.17c0-79.11,56.02-146.42,134.27-171.51c-27.36-10.7-57.41-16.63-88.94-16.63
	c-126.71,0-229.45,95.55-229.45,213.42c0,71.39,37.69,134.57,95.56,173.32c7.92-11.06,21.08-18.31,36.01-18.31
	c24.23,0,43.87,19.09,43.87,42.64c0,3.28-0.42,6.48-1.15,9.55c17.67,4.06,36.15,6.22,55.16,6.22c60.11,0,114.81-21.51,155.73-56.7
	C382.57,393.69,292.65,312.4,292.65,212.17z M178.09,306.67c-10.01,0-18.14-7.88-18.14-17.63c0-9.73,8.11-17.63,18.14-17.63
	c10.01,0,18.14,7.88,18.14,17.63S188.11,306.67,178.09,306.67z M226.38,163.42c-16.66,0-30.16-13.12-30.16-29.32
	c0-16.2,13.51-29.32,30.16-29.32c16.66,0,30.16,13.12,30.16,29.32S243.05,163.42,226.38,163.42z"/>
<g>
	<g>
		<path class="st1" d="M581.55,99.91"/>
	</g>
</g>
<text transform="matrix(1.2213 0 0 1 406.2563 323.8232)" class="st2 st3">+</text>
<text transform="matrix(1.441 0 0 1 345.6418 230.7075)" class="st2 st4">+</text>
<text transform="matrix(1.1464 0 0 1 402.6508 188.2817)" class="st2 st5">+</text>
</svg>
