<?xml version="1.0" encoding="utf-8"?>
<!-- Generator: Adobe Illustrator 25.2.0, SVG Export Plug-In . SVG Version: 6.00 Build 0)  -->
<svg version="1.1" id="Layer_1" xmlns="http://www.w3.org/2000/svg" xmlns:xlink="http://www.w3.org/1999/xlink" x="0px" y="0px"
	 viewBox="0 0 640 480" style="enable-background:new 0 0 640 480;" xml:space="preserve">
<style type="text/css">
	.st0{fill:#FFDB6E;stroke:#000000;stroke-width:5;stroke-miterlimit:10;}
	.st1{fill:#82A5AD;stroke:#000000;stroke-width:5;stroke-linejoin:round;stroke-miterlimit:10;}
	.st2{fill:none;stroke:#000000;stroke-width:5;stroke-miterlimit:10;}
</style>
<ellipse class="st0" cx="505.71" cy="197.5" rx="91.29" ry="89.5"/>
<g>
	<g>
		<path d="M584.89,118.42c4.83-6.25,9.54-12.59,14.12-19.03c0.47-0.66,0.12-1.67-0.54-2.05c-0.75-0.44-1.58-0.12-2.05,0.54
			c-4.43,6.23-8.98,12.38-13.65,18.42c-0.5,0.64-0.62,1.5,0,2.12C583.28,118.94,584.39,119.06,584.89,118.42L584.89,118.42z"/>
	</g>
</g>
<g>
	<g>
		<path d="M582.89,272.22c5.66,4.27,11.33,8.55,17,12.82c1.29,0.98,0.16,3.03-1.12,2.06c-5.66-4.27-11.33-8.55-17-12.82
			C580.49,273.32,581.61,271.26,582.89,272.22L582.89,272.22z"/>
	</g>
</g>
<g>
	<g>
		<path d="M423.24,88.29c4.69,7.19,10.35,13.68,16.64,19.5c1.42,1.31,3.54-0.81,2.12-2.12c-6.11-5.65-11.63-11.92-16.18-18.9
			C424.78,85.17,422.18,86.67,423.24,88.29L423.24,88.29z"/>
	</g>
</g>
<g>
	<g>
		<path d="M600.91,232.48c4.11,2.32,8.21,4.63,12.33,6.95c0.84,0.48,2.02,0.72,2.67,0.46c0.6-0.23,0.52-0.89-0.33-1.36
			c-4.11-2.32-8.21-4.63-12.33-6.95c-0.84-0.48-2.02-0.72-2.67-0.46C599.97,231.35,600.05,232.01,600.91,232.48L600.91,232.48z"/>
	</g>
</g>
<g>
	<g>
		<path d="M612.23,175.28c5.92-1.55,12.58-2.51,19.44-3.14c1.4-0.13,2.23-0.78,1.86-1.32c-0.39-0.58-1.86-0.88-3.27-0.75
			c-7.24,0.66-14.45,1.71-20.71,3.35c-1.2,0.31-1.7,0.95-0.95,1.46C609.29,175.38,611.03,175.6,612.23,175.28L612.23,175.28z"/>
	</g>
</g>
<g>
	<g>
		<path d="M505.71,89.94c0-6.37,0-12.74,0-19.11c0-1.93-3-1.93-3,0c0,6.37,0,12.74,0,19.11C502.71,91.87,505.71,91.87,505.71,89.94
			L505.71,89.94z"/>
	</g>
</g>
<path class="st1" d="M590.79,349.79c0-41.53-31.36-75.21-70.04-75.21c-6.07,0-11.95,0.83-17.57,2.39c0.01-0.8,0.06-1.59,0.06-2.39
	c0-83.07-62.71-150.41-140.07-150.41c-48.11,0-90.54,26.05-115.76,65.72c-12.82-5.98-26.96-9.32-41.82-9.32
	c-52.73,0-96.38,41.72-103.9,96.09C70.9,284.58,48,314.31,48,349.79C48,391.33,79.36,425,118.04,425h420.22v-2.37
	C568.47,414.28,590.79,384.84,590.79,349.79z"/>
<path class="st2" d="M150.84,235.51c0.98-6.32,4.61-11.99,9.43-15.64c4.82-3.65,10.75-5.37,16.62-5.37"/>
<path class="st2" d="M559.21,336.86c2.37,5.6,3.68,11.87,3.79,18.14c0.04,2.14-0.06,4.3-0.5,6.36c-1.3,6.11-5.36,10.61-9.22,14.74"
	/>
</svg>
