<?xml version="1.0" encoding="utf-8"?>
<!-- Generator: Adobe Illustrator 25.2.0, SVG Export Plug-In . SVG Version: 6.00 Build 0)  -->
<svg version="1.1" id="Layer_1" xmlns="http://www.w3.org/2000/svg" xmlns:xlink="http://www.w3.org/1999/xlink" x="0px" y="0px"
	 viewBox="0 0 640 480" style="enable-background:new 0 0 640 480;" xml:space="preserve">
<style type="text/css">
	.st0{fill:#81A2C2;stroke:#000000;stroke-width:5;stroke-linejoin:round;stroke-miterlimit:10;}
	.st1{fill:none;stroke:#000000;stroke-width:5;stroke-miterlimit:10;}
</style>
<path class="st0" d="M606.08,319.03c0-43.65-33.05-79.03-73.83-79.03c-6.4,0-12.6,0.87-18.52,2.51c0.01-0.84,0.05-1.66,0.05-2.51
	c0-87.29-66.1-158.05-147.65-158.05c-50.7,0-95.44,27.37-122.03,69.06c-13.51-6.29-28.41-9.79-44.09-9.79
	c-55.58,0-101.58,43.83-109.52,100.97c-32.45,8.31-56.59,39.55-56.59,76.84c0,43.65,33.05,79.03,73.83,79.03H550.7v-2.49
	C582.56,386.79,606.08,355.85,606.08,319.03z"/>
<path class="st1" d="M148.88,205.33c0.98-6.32,4.61-11.99,9.43-15.64c4.82-3.65,10.75-5.37,16.62-5.37"/>
<path class="st1" d="M567.43,321.05c2.37,5.6,3.68,11.87,3.79,18.14c0.04,2.14-0.06,4.3-0.5,6.36c-1.3,6.11-5.36,10.61-9.22,14.74"
	/>
</svg>
