<?xml version="1.0" encoding="utf-8"?>
<!-- Generator: Adobe Illustrator 25.2.0, SVG Export Plug-In . SVG Version: 6.00 Build 0)  -->
<svg version="1.1" id="Layer_1" xmlns="http://www.w3.org/2000/svg" xmlns:xlink="http://www.w3.org/1999/xlink" x="0px" y="0px"
	 viewBox="0 0 640 480" style="enable-background:new 0 0 640 480;" xml:space="preserve">
<style type="text/css">
	.st0{fill:#666666;stroke:#000000;stroke-width:5;stroke-linejoin:round;stroke-miterlimit:10;}
	.st1{fill:#B3B3B3;stroke:#000000;stroke-width:5;stroke-linejoin:round;stroke-miterlimit:10;}
	.st2{fill:none;stroke:#000000;stroke-width:5;stroke-miterlimit:10;}
</style>
<path class="st0" d="M617.69,232.82c0-34.3-28.04-62.1-62.63-62.1c-5.43,0-10.69,0.68-15.71,1.97c0.01-0.66,0.05-1.31,0.05-1.97
	c0-68.6-56.08-124.2-125.27-124.2c-43.02,0-80.97,21.51-103.53,54.27c-11.46-4.94-24.11-7.69-37.4-7.69
	c-47.16,0-86.18,34.45-92.92,79.34c-27.53,6.53-48.01,31.08-48.01,60.38c0,34.3,28.04,62.1,62.63,62.1h375.8v-1.96
	C597.73,286.07,617.69,261.75,617.69,232.82z"/>
<path class="st1" d="M551.45,336.82c0-41.08-30.62-74.39-68.39-74.39c-5.93,0-11.67,0.82-17.15,2.36c0.01-0.79,0.05-1.56,0.05-2.36
	c0-82.17-61.24-148.77-136.78-148.77c-46.97,0-88.41,25.76-113.04,65.01c-12.51-5.92-26.32-9.21-40.84-9.21
	c-51.49,0-94.1,41.26-101.46,95.04c-30.06,7.82-52.42,37.23-52.42,72.32c0,41.08,30.62,74.39,68.39,74.39h410.33v-2.35
	C529.65,400.6,551.45,371.48,551.45,336.82z"/>
<path class="st2" d="M132.26,240.56c1.4-8.17,6.55-15.5,13.4-20.23s15.28-6.94,23.62-6.95"/>
<path class="st2" d="M522.05,337.94c2.37,5.6,3.68,11.87,3.79,18.14c0.04,2.14-0.06,4.3-0.5,6.36c-1.31,6.11-5.36,10.61-9.22,14.74"
	/>
<path class="st2" d="M396.4,74.92c8.82-3.92,18.57-5.79,28.23-5.43c3.3,0.12,6.61,0.51,9.75,1.51c9.31,2.99,15.92,10.95,21.98,18.53
	"/>
</svg>
