<?xml version="1.0" encoding="utf-8"?>
<!-- Generator: Adobe Illustrator 25.2.0, SVG Export Plug-In . SVG Version: 6.00 Build 0)  -->
<svg version="1.1" id="Layer_1" xmlns="http://www.w3.org/2000/svg" xmlns:xlink="http://www.w3.org/1999/xlink" x="0px" y="0px"
	 viewBox="0 0 640 480" style="enable-background:new 0 0 640 480;" xml:space="preserve">
<style type="text/css">
	.st0{fill:#B3B3B3;stroke:#000000;stroke-width:5;stroke-linejoin:round;stroke-miterlimit:10;}
	.st1{fill:none;stroke:#000000;stroke-width:5;stroke-miterlimit:10;}
</style>
<path class="st0" d="M604.31,274.65c0-42-31.72-76.05-70.85-76.05c-6.14,0-12.09,0.83-17.77,2.41c0.01-0.81,0.05-1.6,0.05-2.41
	c0-84-63.44-152.09-141.7-152.09c-48.66,0-91.59,26.34-117.1,66.46c-12.96-6.05-27.27-9.42-42.31-9.42
	c-53.34,0-97.49,42.18-105.11,97.16c-31.14,8-54.31,38.06-54.31,73.94c0,42,31.72,76.05,70.85,76.05h425.09v-2.4
	C581.74,339.86,604.31,310.08,604.31,274.65z"/>
<polygon points="409.59,439.84 405.09,437.25 437.35,380.19 441.84,382.78 "/>
<path class="st1" d="M163.52,162.91c1.4-8.17,6.55-15.5,13.4-20.23s15.28-6.94,23.62-6.95"/>
<path class="st1" d="M386.74,78.63c9.42-2.07,19.35-1.96,28.75,0.33c3.21,0.78,6.38,1.82,9.25,3.43
	c8.53,4.79,13.41,13.91,17.83,22.55"/>
<polygon points="340.93,439.84 336.43,437.25 368.69,380.19 373.18,382.78 "/>
<polygon points="476.42,439.84 471.93,437.25 504.18,380.19 508.67,382.78 "/>
<polygon points="109.82,435.18 105.33,432.58 137.58,375.52 142.07,378.12 "/>
<polygon points="186.66,435.18 182.17,432.58 214.42,375.52 218.91,378.12 "/>
<polygon points="267.6,435.18 263.11,432.58 295.36,375.52 299.85,378.12 "/>
</svg>
