<?xml version="1.0" encoding="utf-8"?>
<!-- Generator: Adobe Illustrator 25.2.0, SVG Export Plug-In . SVG Version: 6.00 Build 0)  -->
<svg version="1.1" id="Layer_1" xmlns="http://www.w3.org/2000/svg" xmlns:xlink="http://www.w3.org/1999/xlink" x="0px" y="0px"
	 viewBox="0 0 640 480" style="enable-background:new 0 0 640 480;" xml:space="preserve">
<style type="text/css">
	.st0{fill:#FFDB6E;stroke:#000000;stroke-width:5;stroke-miterlimit:10;}
	.st1{fill:#B3B3B3;stroke:#000000;stroke-width:5;stroke-linejoin:round;stroke-miterlimit:10;}
	.st2{fill:none;stroke:#000000;stroke-width:5;stroke-miterlimit:10;}
	.st3{stroke:#000000;stroke-width:2;stroke-miterlimit:10;}
</style>
<ellipse class="st0" cx="187.49" cy="151.24" rx="124.47" ry="115.98"/>
<path class="st1" d="M628.09,279.74c0-42-32.32-76.05-72.19-76.05c-6.26,0-12.32,0.83-18.11,2.41c0.01-0.81,0.05-1.6,0.05-2.41
	c0-84-64.64-152.09-144.37-152.09c-49.58,0-93.32,26.34-119.32,66.46c-13.21-6.05-27.78-9.42-43.11-9.42
	c-54.35,0-99.33,42.18-107.09,97.16c-31.73,8-55.33,38.06-55.33,73.94c0,42,32.32,76.05,72.19,76.05h433.12v-2.4
	C605.08,344.95,628.09,315.18,628.09,279.74z"/>
<polygon points="438.49,439.57 434,436.98 466.25,379.92 470.74,382.51 "/>
<path class="st2" d="M178.17,171.19c1.4-8.17,6.55-15.5,13.4-20.23s15.28-6.94,23.62-6.95"/>
<path class="st2" d="M402.55,89.88c9.42-2.07,19.35-1.96,28.75,0.33c3.21,0.78,6.38,1.82,9.25,3.43
	c8.53,4.79,13.41,13.91,17.83,22.55"/>
<polygon points="358.07,439.57 353.58,436.98 385.83,379.92 390.33,382.51 "/>
<polygon points="509.77,439.57 505.28,436.98 537.53,379.92 542.03,382.51 "/>
<polygon points="121.79,439.57 117.29,436.98 149.55,379.92 154.04,382.51 "/>
<polygon points="196.16,439.57 191.67,436.98 223.92,379.92 228.42,382.51 "/>
<polygon points="274.98,439.57 270.49,436.98 302.74,379.92 307.24,382.51 "/>
<g>
	<g>
		<path d="M75.4,31.14c6.31,5.71,12.63,11.43,18.95,17.14c1.43,1.31,0.01,4.27-1.41,2.98c-6.31-5.71-12.63-11.43-18.95-17.14
			C72.56,32.84,73.98,29.86,75.4,31.14L75.4,31.14z"/>
	</g>
</g>
<g>
	<g>
		<path d="M18.76,131.56c8.79,0.6,17.6,1.22,26.41,1.82c2,0.15,2.45,3.25,0.47,3.12c-8.79-0.6-17.6-1.22-26.41-1.82
			C17.24,134.54,16.78,131.42,18.76,131.56L18.76,131.56z"/>
	</g>
</g>
<g>
	<g>
		<path d="M234.04,10.4c-4,6.46-8.02,12.92-12.02,19.38c-0.92,1.47-3.96,0.81-3.06-0.64c4-6.46,8.02-12.92,12.02-19.38
			C231.89,8.31,234.95,8.95,234.04,10.4L234.04,10.4z"/>
	</g>
</g>
<g>
	<g>
		<path d="M34.09,206.91c6.51-2.81,13.04-5.61,19.56-8.42c1.48-0.63,2.71,1.36,1.24,1.99c-6.51,2.81-13.04,5.61-19.56,8.42
			C33.86,209.54,32.63,207.54,34.09,206.91L34.09,206.91z"/>
	</g>
</g>
<g>
	<g>
		<path class="st3" d="M140.93,14.63c0.83,4.86,1.66,9.72,2.49,14.58c0.18,1.11-1.54,2-1.73,0.91c-0.83-4.86-1.66-9.72-2.49-14.58
			C139.01,14.44,140.74,13.54,140.93,14.63L140.93,14.63z"/>
	</g>
</g>
<g>
	<g>
		<path class="st3" d="M47.76,78.86c3.42,1.4,6.85,2.8,10.28,4.2c0.78,0.32,0.75,1.88-0.02,1.57c-3.42-1.4-6.85-2.8-10.28-4.2
			C46.98,80.11,46.99,78.54,47.76,78.86L47.76,78.86z"/>
	</g>
</g>
</svg>
