<?xml version="1.0" encoding="utf-8"?>
<!-- Generator: Adobe Illustrator 25.2.0, SVG Export Plug-In . SVG Version: 6.00 Build 0)  -->
<svg version="1.1" id="Layer_1" xmlns="http://www.w3.org/2000/svg" xmlns:xlink="http://www.w3.org/1999/xlink" x="0px" y="0px"
	 viewBox="0 0 640 480" style="enable-background:new 0 0 640 480;" xml:space="preserve">
<style type="text/css">
	.st0{fill:#48484A;stroke:#000000;stroke-width:5;stroke-miterlimit:10;}
	.st1{fill:#B3B3B3;stroke:#000000;stroke-width:5;stroke-linejoin:round;stroke-miterlimit:10;}
	.st2{fill:none;stroke:#000000;stroke-width:5;stroke-miterlimit:10;}
</style>
<ellipse class="st0" cx="501.07" cy="158.67" rx="131.08" ry="128.51"/>
<path class="st1" d="M604.53,288.02c0-42-32.32-76.05-72.19-76.05c-6.26,0-12.32,0.83-18.11,2.41c0.01-0.81,0.05-1.6,0.05-2.41
	c0-84-64.64-152.09-144.37-152.09c-49.58,0-93.32,26.34-119.32,66.46c-13.21-6.05-27.78-9.42-43.11-9.42
	c-54.35,0-99.33,42.18-107.09,97.16c-31.73,8-55.33,38.06-55.33,73.94c0,42,32.32,76.05,72.19,76.05h433.11v-2.4
	C581.53,353.23,604.53,323.46,604.53,288.02z"/>
<polygon points="409.59,448.89 405.09,446.3 437.35,389.24 441.84,391.83 "/>
<path class="st2" d="M163.52,162.91c1.4-8.17,6.55-15.5,13.4-20.23s15.28-6.94,23.62-6.95"/>
<path class="st2" d="M386.74,89.88c9.42-2.07,19.35-1.96,28.75,0.33c3.21,0.78,6.38,1.82,9.25,3.43
	c8.53,4.79,13.41,13.91,17.83,22.55"/>
<polygon points="334.48,452.96 329.99,450.37 362.24,393.31 366.73,395.9 "/>
<polygon points="472,452.96 467.51,450.37 499.76,393.31 504.26,395.9 "/>
<polygon points="103.41,448.89 98.92,446.3 131.17,389.24 135.67,391.83 "/>
<polygon points="185.51,448.89 181.01,446.3 213.27,389.24 217.76,391.83 "/>
<polygon points="265.4,448.89 260.91,446.3 293.16,389.24 297.66,391.83 "/>
</svg>
